<?xml version="1.0" encoding="UTF-8" standalone="no"?>
<!-- Generator: Adobe Illustrator 13.0.0, SVG Export Plug-In . SVG Version: 6.00 Build 14948)  -->
 
<svg
   version="1.2"
   id="Layer_1"
   x="0px"
   y="0px"
   width="733.55402"
   height="62.980999"
   viewBox="0 0 733.554 62.981"
   xml:space="preserve"
   sodipodi:docname="InfoCenterLogo.svg"
   inkscape:version="1.2.1 (9c6d41e410, 2022-07-14)"
   xmlns:inkscape="http://www.inkscape.org/namespaces/inkscape"
   xmlns:sodipodi="http://sodipodi.sourceforge.net/DTD/sodipodi-0.dtd"
   xmlns="http://www.w3.org/2000/svg"
   xmlns:svg="http://www.w3.org/2000/svg"><defs
   id="defs94"><rect
     x="387.68286"
     y="15.507314"
     width="145.76875"
     height="64.510429"
     id="rect481" /><rect
     x="304.56366"
     y="34.116093"
     width="205.31683"
     height="36.597263"
     id="rect373" /></defs><sodipodi:namedview
   id="namedview92"
   pagecolor="#ffffff"
   bordercolor="#000000"
   borderopacity="0.25"
   inkscape:showpageshadow="2"
   inkscape:pageopacity="0.0"
   inkscape:pagecheckerboard="0"
   inkscape:deskcolor="#d1d1d1"
   showgrid="false"
   inkscape:zoom="1.6121425"
   inkscape:cx="214.62123"
   inkscape:cy="26.052288"
   inkscape:window-width="1920"
   inkscape:window-height="1017"
   inkscape:window-x="-8"
   inkscape:window-y="-8"
   inkscape:window-maximized="1"
   inkscape:current-layer="Layer_1" />

<g
   id="g67"
   style="fill:#ffffff">
	<path
   fill="#ffffff"
   d="M 148.712,48.836 128.174,2.737 h 9.91 l 12.453,27.907 c 2.043,-4.651 4.097,-9.313 6.162,-13.987 2.065,-4.672 4.142,-9.312 6.229,-13.92 h 9.91 l -20.345,46.099 z"
   id="path49"
   style="fill:#ffffff" />
	<rect
   x="185.62399"
   y="2.737"
   fill="#ffffff"
   width="8.9980001"
   height="45.643002"
   id="rect51"
   style="fill:#ffffff" />
	<path
   fill="#ffffff"
   d="m 224.278,48.832 c -2.001,0 -3.936,-0.283 -5.803,-0.848 -1.869,-0.564 -3.631,-1.369 -5.283,-2.412 h 0.067 c -1.175,-0.739 -2.219,-1.543 -3.132,-2.413 -0.912,-0.869 -1.543,-1.5 -1.889,-1.891 l 6.779,-6.26 c 0.304,0.391 0.793,0.858 1.468,1.402 0.673,0.544 1.445,1.064 2.315,1.564 0.868,0.501 1.781,0.924 2.738,1.271 0.955,0.349 1.867,0.521 2.738,0.521 0.739,0 1.477,-0.087 2.216,-0.261 0.739,-0.174 1.413,-0.445 2.023,-0.815 0.608,-0.368 1.108,-0.858 1.499,-1.466 0.391,-0.609 0.586,-1.371 0.586,-2.283 0,-0.348 -0.12,-0.728 -0.357,-1.142 -0.24,-0.412 -0.653,-0.856 -1.239,-1.335 -0.587,-0.479 -1.401,-0.99 -2.444,-1.534 -1.044,-0.543 -2.348,-1.118 -3.913,-1.728 -1.825,-0.694 -3.522,-1.444 -5.085,-2.249 -1.565,-0.805 -2.925,-1.749 -4.077,-2.837 -1.152,-1.086 -2.043,-2.325 -2.674,-3.716 -0.631,-1.392 -0.944,-3 -0.944,-4.826 0,-1.868 0.348,-3.618 1.045,-5.248 0.692,-1.631 1.683,-3.042 2.966,-4.238 1.281,-1.195 2.825,-2.129 4.628,-2.805 1.803,-0.672 3.793,-1.01 5.967,-1.01 1.175,0 2.423,0.152 3.75,0.456 1.324,0.304 2.619,0.696 3.88,1.174 1.259,0.479 2.444,1.032 3.553,1.663 1.109,0.631 2.032,1.271 2.771,1.923 l -5.606,7.043 c -0.826,-0.565 -1.675,-1.087 -2.543,-1.565 -0.742,-0.391 -1.588,-0.76 -2.545,-1.108 -0.955,-0.348 -1.934,-0.522 -2.934,-0.522 -1.825,0 -3.251,0.359 -4.27,1.076 -1.024,0.718 -1.532,1.75 -1.532,3.097 0,0.61 0.184,1.163 0.553,1.663 0.368,0.501 0.87,0.957 1.501,1.369 0.628,0.414 1.356,0.794 2.183,1.142 0.826,0.349 1.696,0.674 2.609,0.978 2.606,1.001 4.804,2.012 6.586,3.033 1.781,1.021 3.216,2.108 4.304,3.26 1.086,1.152 1.856,2.392 2.314,3.717 0.455,1.326 0.684,2.771 0.684,4.336 0,1.913 -0.391,3.716 -1.173,5.411 -0.784,1.695 -1.858,3.164 -3.229,4.401 -1.368,1.239 -3,2.218 -4.89,2.935 -1.892,0.718 -3.945,1.077 -6.161,1.077"
   id="path53"
   style="fill:#ffffff" />
	<rect
   x="253.349"
   y="2.737"
   fill="#ffffff"
   width="8.9980001"
   height="45.643002"
   id="rect55"
   style="fill:#ffffff" />
	<polygon
   fill="#ffffff"
   points="334.376,48.38 334.376,2.28 338.354,2.28 363.002,29.666 363.002,2.737 372,2.737 372,48.836 367.956,48.836 343.375,21.516 343.375,48.38 "
   id="polygon57"
   style="fill:#ffffff" />
	<polygon
   fill="#ffffff"
   points="27.125,30.123 8.998,30.123 8.998,48.38 0,48.38 0,2.737 8.998,2.737 8.998,20.995 27.125,20.995 27.125,2.737 36.189,2.737 36.189,48.38 27.125,48.38 "
   id="polygon59"
   style="fill:#ffffff" />
	<rect
   x="106.391"
   y="2.737"
   fill="#ffffff"
   width="8.9980001"
   height="45.643002"
   id="rect61"
   style="fill:#ffffff" />
	<path
   fill="#ffffff"
   d="m 73.099,2.28 h -3.846 l -20.278,46.1 h 9.91 C 59.407,47.12 71.209,20.407 71.209,20.407 L 83.662,48.38 h 9.978 z"
   id="path63"
   style="fill:#ffffff" />
	<path
   fill="#ffffff"
   d="M 319.633,16.236 C 318.33,13.383 316.604,10.92 314.461,8.841 312.315,6.764 309.84,5.15 307.032,3.998 304.224,2.85 301.341,2.275 298.377,2.275 c -3.36,0 -6.455,0.641 -9.284,1.923 -2.831,1.283 -5.283,2.995 -7.361,5.14 -2.077,2.145 -3.704,4.633 -4.874,7.461 -1.172,2.83 -1.757,5.77 -1.757,8.82 0,3.537 0.661,6.731 1.99,9.584 1.325,2.851 3.083,5.284 5.271,7.295 2.188,2.013 4.675,3.571 7.46,4.675 2.787,1.105 5.637,1.658 8.555,1.658 3.361,0 6.467,-0.641 9.319,-1.924 2.85,-1.281 5.306,-3.006 7.36,-5.173 2.056,-2.166 3.659,-4.643 4.809,-7.427 1.149,-2.786 1.726,-5.682 1.726,-8.688 0,-3.403 -0.655,-6.531 -1.958,-9.383 m -8.115,14.916 c -0.763,1.72 -1.79,3.229 -3.084,4.523 -1.297,1.297 -2.806,2.324 -4.525,3.083 -1.721,0.761 -3.564,1.139 -5.53,1.139 -1.966,0 -3.833,-0.368 -5.597,-1.105 -1.766,-0.737 -3.294,-1.753 -4.591,-3.05 -1.296,-1.295 -2.324,-2.814 -3.084,-4.557 -0.761,-1.743 -1.139,-3.597 -1.139,-5.563 0,-1.966 0.378,-3.821 1.139,-5.564 0.76,-1.742 1.788,-3.271 3.084,-4.592 1.297,-1.316 2.814,-2.355 4.559,-3.115 1.741,-0.76 3.618,-1.141 5.629,-1.141 1.922,0 3.743,0.381 5.463,1.141 1.721,0.76 3.239,1.799 4.558,3.115 1.317,1.32 2.356,2.85 3.119,4.592 0.758,1.743 1.139,3.598 1.139,5.564 0,1.966 -0.382,3.81 -1.14,5.53"
   id="path65"
   style="fill:#ffffff" />
</g>
<text
   xml:space="preserve"
   id="text371"
   style="white-space:pre;shape-inside:url(#rect373);display:inline;fill:#ffffff"
   transform="matrix(3.3260972,0,0,3.3260972,-685.10648,-92.849603)" /><text
   xml:space="preserve"
   id="text479"
   style="font-style:normal;font-variant:normal;font-stretch:normal;font-size:12px;font-family:Gotham;-inkscape-font-specification:'Gotham,  weight=325';font-variant-ligatures:normal;font-variant-caps:normal;font-variant-numeric:normal;font-variant-east-asian:normal;white-space:pre;shape-inside:url(#rect481);display:inline;fill:#ffffff" /><path
   d="m 407.78101,49.762524 h 3.536 v -22.304 h 30.464 v 22.304 h 3.536 V 2.1625237 h -3.536 V 24.194524 h -30.464 V 2.1625237 h -3.536 z"
   id="path179"
   style="font-weight:300;font-size:68px;font-family:Gotham;-inkscape-font-specification:'Gotham Light';fill:#ffffff" /><path
   d="m 473.33303,50.578524 c 6.664,0 10.812,-2.72 14.348,-6.528 l -2.312,-2.04 c -2.856,3.06 -6.528,5.44 -11.9,5.44 -6.8,0 -12.988,-5.032 -13.6,-13.668 h 28.764 c 0.068,-0.544 0.068,-0.748 0.068,-1.36 0,-10.268 -6.188,-18.156 -15.912,-18.156 -9.384,0 -16.456,8.024 -16.456,18.088 v 0.136 c 0,10.812 7.888,18.088 17,18.088 z m -13.464,-19.788 c 0.612,-7.684 5.916,-13.464 12.784,-13.464 7.956,0 11.968,6.46 12.444,13.464 z"
   id="path181"
   style="font-weight:300;font-size:68px;font-family:Gotham;-inkscape-font-specification:'Gotham Light';fill:#ffffff" /><path
   d="m 498.90101,49.762524 h 3.332 V 0.12252365 h -3.332 z"
   id="path183"
   style="font-weight:300;font-size:68px;font-family:Gotham;-inkscape-font-specification:'Gotham Light';fill:#ffffff" /><path
   d="m 515.35704,60.642524 h 3.332 v -18.36 c 2.856,4.352 7.344,8.296 14.28,8.296 8.364,0 16.864,-6.868 16.864,-18.156 v -0.136 c 0,-11.288 -8.5,-18.02 -16.864,-18.02 -6.868,0 -11.288,4.012 -14.28,8.568 v -7.752 h -3.332 z m 17.272,-13.26 c -7.208,0 -14.144,-5.984 -14.144,-14.892 v -0.136 c 0,-8.84 6.936,-14.892 14.144,-14.892 7.276,0 13.6,5.848 13.6,14.96 v 0.136 c 0,9.316 -6.052,14.824 -13.6,14.824 z"
   id="path185"
   style="font-weight:300;font-size:68px;font-family:Gotham;-inkscape-font-specification:'Gotham Light';fill:#ffffff" /></svg>
