<?xml version="1.0" encoding="UTF-8" standalone="no"?>
<!-- Generator: Adobe Illustrator 13.0.0, SVG Export Plug-In . SVG Version: 6.00 Build 14948)  -->
<svg version="1.2" id="Layer_1" x="0px" y="0px" width="739.55402" height="200" viewBox="0 0 739.554 200" xml:space="preserve" sodipodi:docname="InfoCenterLogo.svg" inkscape:version="1.2.1 (9c6d41e410, 2022-07-14)" inkscape:export-filename="InfoCenterLogo.png" inkscape:export-xdpi="96" inkscape:export-ydpi="96" xmlns:inkscape="http://www.inkscape.org/namespaces/inkscape" xmlns:sodipodi="http://sodipodi.sourceforge.net/DTD/sodipodi-0.dtd" xmlns="http://www.w3.org/2000/svg" xmlns:svg="http://www.w3.org/2000/svg"><defs id="defs94"><rect x="387.68286" y="15.507314" width="145.76875" height="64.510429" id="rect481"/><rect x="304.56366" y="34.116093" width="205.31683" height="36.597263" id="rect373"/></defs><sodipodi:namedview id="namedview92" pagecolor="#ffffff" bordercolor="#000000" borderopacity="0.25" inkscape:showpageshadow="2" inkscape:pageopacity="0.0" inkscape:pagecheckerboard="0" inkscape:deskcolor="#d1d1d1" showgrid="false" inkscape:zoom="1.3062462" inkscape:cx="377.41737" inkscape:cy="108.70845" inkscape:window-width="1920" inkscape:window-height="1017" inkscape:window-x="-8" inkscape:window-y="-8" inkscape:window-maximized="1" inkscape:current-layer="Layer_1"/>


<g id="g67">
   <path fill="#ffffff" d="M 148.712,48.836 128.174,2.737 h 9.91 l 12.453,27.907 c 2.043,-4.651 4.097,-9.313 6.162,-13.987 2.065,-4.672 4.142,-9.312 6.229,-13.92 h 9.91 l -20.345,46.099 z" id="path49"/>
   <rect x="185.62399" y="2.737" fill="#ffffff" width="8.9980001" height="45.643002" id="rect51"/>
   <path fill="#ffffff" d="m 224.278,48.832 c -2.001,0 -3.936,-0.283 -5.803,-0.848 -1.869,-0.564 -3.631,-1.369 -5.283,-2.412 h 0.067 c -1.175,-0.739 -2.219,-1.543 -3.132,-2.413 -0.912,-0.869 -1.543,-1.5 -1.889,-1.891 l 6.779,-6.26 c 0.304,0.391 0.793,0.858 1.468,1.402 0.673,0.544 1.445,1.064 2.315,1.564 0.868,0.501 1.781,0.924 2.738,1.271 0.955,0.349 1.867,0.521 2.738,0.521 0.739,0 1.477,-0.087 2.216,-0.261 0.739,-0.174 1.413,-0.445 2.023,-0.815 0.608,-0.368 1.108,-0.858 1.499,-1.466 0.391,-0.609 0.586,-1.371 0.586,-2.283 0,-0.348 -0.12,-0.728 -0.357,-1.142 -0.24,-0.412 -0.653,-0.856 -1.239,-1.335 -0.587,-0.479 -1.401,-0.99 -2.444,-1.534 -1.044,-0.543 -2.348,-1.118 -3.913,-1.728 -1.825,-0.694 -3.522,-1.444 -5.085,-2.249 -1.565,-0.805 -2.925,-1.749 -4.077,-2.837 -1.152,-1.086 -2.043,-2.325 -2.674,-3.716 -0.631,-1.392 -0.944,-3 -0.944,-4.826 0,-1.868 0.348,-3.618 1.045,-5.248 0.692,-1.631 1.683,-3.042 2.966,-4.238 1.281,-1.195 2.825,-2.129 4.628,-2.805 1.803,-0.672 3.793,-1.01 5.967,-1.01 1.175,0 2.423,0.152 3.75,0.456 1.324,0.304 2.619,0.696 3.88,1.174 1.259,0.479 2.444,1.032 3.553,1.663 1.109,0.631 2.032,1.271 2.771,1.923 l -5.606,7.043 c -0.826,-0.565 -1.675,-1.087 -2.543,-1.565 -0.742,-0.391 -1.588,-0.76 -2.545,-1.108 -0.955,-0.348 -1.934,-0.522 -2.934,-0.522 -1.825,0 -3.251,0.359 -4.27,1.076 -1.024,0.718 -1.532,1.75 -1.532,3.097 0,0.61 0.184,1.163 0.553,1.663 0.368,0.501 0.87,0.957 1.501,1.369 0.628,0.414 1.356,0.794 2.183,1.142 0.826,0.349 1.696,0.674 2.609,0.978 2.606,1.001 4.804,2.012 6.586,3.033 1.781,1.021 3.216,2.108 4.304,3.26 1.086,1.152 1.856,2.392 2.314,3.717 0.455,1.326 0.684,2.771 0.684,4.336 0,1.913 -0.391,3.716 -1.173,5.411 -0.784,1.695 -1.858,3.164 -3.229,4.401 -1.368,1.239 -3,2.218 -4.89,2.935 -1.892,0.718 -3.945,1.077 -6.161,1.077" id="path53"/>
   <rect x="253.349" y="2.737" fill="#ffffff" width="8.9980001" height="45.643002" id="rect55"/>
   <polygon fill="#ffffff" points="343.375,48.38 334.376,48.38 334.376,2.28 338.354,2.28 363.002,29.666 363.002,2.737 372,2.737 372,48.836 367.956,48.836 343.375,21.516 " id="polygon57"/>
   <polygon fill="#ffffff" points="0,48.38 0,2.737 8.998,2.737 8.998,20.995 27.125,20.995 27.125,2.737 36.189,2.737 36.189,48.38 27.125,48.38 27.125,30.123 8.998,30.123 8.998,48.38 " id="polygon59"/>
   <rect x="106.391" y="2.737" fill="#ffffff" width="8.9980001" height="45.643002" id="rect61"/>
   <path fill="#ffffff" d="m 73.099,2.28 h -3.846 l -20.278,46.1 h 9.91 C 59.407,47.12 71.209,20.407 71.209,20.407 L 83.662,48.38 h 9.978 z" id="path63"/>
   <path fill="#ffffff" d="M 319.633,16.236 C 318.33,13.383 316.604,10.92 314.461,8.841 312.315,6.764 309.84,5.15 307.032,3.998 304.224,2.85 301.341,2.275 298.377,2.275 c -3.36,0 -6.455,0.641 -9.284,1.923 -2.831,1.283 -5.283,2.995 -7.361,5.14 -2.077,2.145 -3.704,4.633 -4.874,7.461 -1.172,2.83 -1.757,5.77 -1.757,8.82 0,3.537 0.661,6.731 1.99,9.584 1.325,2.851 3.083,5.284 5.271,7.295 2.188,2.013 4.675,3.571 7.46,4.675 2.787,1.105 5.637,1.658 8.555,1.658 3.361,0 6.467,-0.641 9.319,-1.924 2.85,-1.281 5.306,-3.006 7.36,-5.173 2.056,-2.166 3.659,-4.643 4.809,-7.427 1.149,-2.786 1.726,-5.682 1.726,-8.688 0,-3.403 -0.655,-6.531 -1.958,-9.383 m -8.115,14.916 c -0.763,1.72 -1.79,3.229 -3.084,4.523 -1.297,1.297 -2.806,2.324 -4.525,3.083 -1.721,0.761 -3.564,1.139 -5.53,1.139 -1.966,0 -3.833,-0.368 -5.597,-1.105 -1.766,-0.737 -3.294,-1.753 -4.591,-3.05 -1.296,-1.295 -2.324,-2.814 -3.084,-4.557 -0.761,-1.743 -1.139,-3.597 -1.139,-5.563 0,-1.966 0.378,-3.821 1.139,-5.564 0.76,-1.742 1.788,-3.271 3.084,-4.592 1.297,-1.316 2.814,-2.355 4.559,-3.115 1.741,-0.76 3.618,-1.141 5.629,-1.141 1.922,0 3.743,0.381 5.463,1.141 1.721,0.76 3.239,1.799 4.558,3.115 1.317,1.32 2.356,2.85 3.119,4.592 0.758,1.743 1.139,3.598 1.139,5.564 0,1.966 -0.382,3.81 -1.14,5.53" id="path65"/>
</g><g aria-label="InfoCenter" id="text540" style="font-weight:300;font-size:146.667px;font-family:Gotham;-inkscape-font-specification:'Gotham Light';fill:#ffffff"><path d="M 0.00356764,187.13651 H 7.630252 V 84.4696 H 0.00356764 Z" id="path224"/><path d="m 37.550344,187.13651 h 7.186684 v -43.26677 c 0,-15.5467 11.293359,-26.6934 25.96006,-26.6934 15.106702,0 23.760055,10.12003 23.760055,25.52006 v 44.44011 h 7.186687 V 141.3764 c 0,-17.89338 -11.000029,-30.80007 -29.920073,-30.80007 -13.640032,0 -22.000051,6.89335 -26.986729,15.69337 v -13.93337 h -7.186684 z" id="path226"/><path d="m 131.85735,187.13651 h 7.18669 v -68.20016 h 26.10672 v -6.60002 h -26.10672 v -7.18668 c 0,-12.760032 4.84001,-18.920046 15.1067,-18.920046 3.81334,0 6.89335,0.586668 11.14669,1.906671 v -6.746682 c -3.37334,-1.173336 -6.60002,-1.760004 -11.14669,-1.760004 -6.60002,0 -11.88003,2.053338 -15.69337,5.86668 -4.25335,4.253343 -6.60002,11.000026 -6.60002,19.506711 v 7.33335 h -10.85336 v 6.60002 h 10.85336 z" id="path228"/><path d="m 212.23078,188.89651 c 22.29338,0 38.57342,-18.18671 38.57342,-39.16009 v -0.29334 c 0,-20.97338 -16.13337,-38.86675 -38.28009,-38.86675 -22.29338,0 -38.57342,18.18671 -38.57342,39.16009 v 0.29333 c 0,20.97338 16.13337,38.86676 38.28009,38.86676 z m 0.29333,-6.74668 c -17.3067,0 -30.80007,-14.37337 -30.80007,-32.41341 v -0.29334 c 0,-17.60004 12.76003,-32.12007 30.50674,-32.12007 17.30671,0 30.80007,14.37337 30.80007,32.41341 v 0.29333 c 0,17.60004 -12.76003,32.12008 -30.50674,32.12008 z" id="path230"/><path d="m 321.05762,188.89651 c 18.18671,0 29.92007,-7.18668 40.77343,-17.89338 l -5.13335,-4.98667 c -10.41335,10.26669 -20.53338,15.9867 -35.34675,15.9867 -24.49339,0 -43.41343,-20.24005 -43.41343,-46.20011 v -0.29333 c 0,-25.81339 18.62671,-45.906775 43.26677,-45.906775 15.40003,0 25.66672,6.453349 34.61341,15.106705 l 5.42668,-5.573349 c -10.56002,-9.680023 -21.56005,-16.426705 -39.89343,-16.426705 -29.62673,0 -51.33345,24.053394 -51.33345,53.093454 v 0.29334 c 0,29.48007 21.70672,52.80012 51.04012,52.80012 z" id="path232"/><path d="m 411.99111,188.89651 c 14.37337,0 23.32006,-5.86668 30.94674,-14.08003 l -4.98667,-4.40001 c -6.16002,6.60001 -14.08004,11.73336 -25.66673,11.73336 -14.6667,0 -28.0134,-10.85336 -29.3334,-29.48007 h 62.04014 c 0.14667,-1.17334 0.14667,-1.61334 0.14667,-2.93334 0,-22.14672 -13.3467,-39.16009 -34.32008,-39.16009 -20.24005,0 -35.49342,17.3067 -35.49342,39.01342 v 0.29334 c 0,23.32005 17.01338,39.01342 36.66675,39.01342 z m -29.04006,-42.6801 c 1.32,-16.57337 12.76003,-29.04007 27.57339,-29.04007 17.16004,0 25.8134,13.93337 26.84007,29.04007 z" id="path234"/><path d="m 466.11121,187.13651 h 7.18669 v -43.26677 c 0,-15.5467 11.29335,-26.6934 25.96006,-26.6934 15.1067,0 23.76005,10.12003 23.76005,25.52006 v 44.44011 h 7.18668 V 141.3764 c 0,-17.89338 -11.00002,-30.80007 -29.92007,-30.80007 -13.64003,0 -22.00005,6.89335 -26.98672,15.69337 v -13.93337 h -7.18669 z" id="path236"/><path d="m 580.95162,188.45651 c 4.69334,0 8.36002,-0.88 12.17336,-2.64001 v -6.74668 c -4.25335,1.90667 -7.33335,2.64001 -11.00003,2.64001 -8.65335,0 -14.96003,-3.81335 -14.96003,-14.52004 v -48.25344 h 26.25339 v -6.60002 H 567.16492 V 88.429609 h -7.18669 v 23.906721 h -10.85335 v 6.60002 h 10.85335 v 48.98678 c 0,14.2267 9.38669,20.53338 20.97339,20.53338 z" id="path238"/><path d="m 644.01843,188.89651 c 14.37336,0 23.32005,-5.86668 30.94674,-14.08003 l -4.98668,-4.40001 c -6.16002,6.60001 -14.08003,11.73336 -25.66673,11.73336 -14.6667,0 -28.0134,-10.85336 -29.3334,-29.48007 h 62.04014 c 0.14667,-1.17334 0.14667,-1.61334 0.14667,-2.93334 0,-22.14672 -13.3467,-39.16009 -34.32008,-39.16009 -20.24005,0 -35.49341,17.3067 -35.49341,39.01342 v 0.29334 c 0,23.32005 17.01337,39.01342 36.66675,39.01342 z m -29.04007,-42.6801 c 1.32,-16.57337 12.76003,-29.04007 27.5734,-29.04007 17.16004,0 25.81339,13.93337 26.84006,29.04007 z" id="path240"/><path d="m 698.13852,187.13651 h 7.18669 V 156.4831 c 0,-24.34672 15.1067,-37.40009 32.41341,-37.40009 h 0.73333 V 111.163 c -14.81337,-0.58667 -27.28006,9.09335 -33.14674,22.44005 v -21.26672 h -7.18669 z" id="path242"/></g></svg>